<svg xmlns="http://www.w3.org/2000/svg" xmlns:xlink="http://www.w3.org/1999/xlink" version="1.1" width="256" height="256" viewBox="0 0 256 256" xml:space="preserve">
<g style="stroke: none; stroke-width: 0; stroke-dasharray: none; stroke-linecap: butt; stroke-linejoin: miter; stroke-miterlimit: 10; fill: none; fill-rule: nonzero; opacity: 1;" transform="translate(1.4065934065934016 1.4065934065934016) scale(2.81 2.81)">
	<path d="M 88.436 5.704 l -4.14 -4.14 c -2.085 -2.085 -5.466 -2.085 -7.551 0 l -6.181 6.181 L 27.239 51.07 c -0.66 0.66 -1.166 1.459 -1.479 2.338 l -5.245 14.699 c -0.306 0.857 0.521 1.684 1.378 1.378 l 14.699 -5.245 c 0.879 -0.314 1.678 -0.819 2.338 -1.479 l 43.325 -43.325 l 6.181 -6.181 C 90.521 11.17 90.521 7.789 88.436 5.704 z" style="stroke: none; stroke-width: 1; stroke-dasharray: none; stroke-linecap: butt; stroke-linejoin: miter; stroke-miterlimit: 10; fill: rgb(13,110,253); fill-rule: nonzero; opacity: 1;" transform=" matrix(1 0 0 1 0 0) " stroke-linecap="round"/>
	<path d="M 75.857 90 H 9.53 C 4.275 90 0 85.726 0 80.471 V 14.142 c 0 -5.255 4.275 -9.53 9.53 -9.53 h 34.803 c 2.209 0 4 1.791 4 4 s -1.791 4 -4 4 H 9.53 c -0.844 0 -1.53 0.686 -1.53 1.53 v 66.329 C 8 81.313 8.686 82 9.53 82 h 66.328 c 0.844 0 1.53 -0.687 1.53 -1.529 V 45.667 c 0 -2.209 1.791 -4 4 -4 s 4 1.791 4 4 v 34.804 C 85.388 85.726 81.112 90 75.857 90 z" style="stroke: none; stroke-width: 1; stroke-dasharray: none; stroke-linecap: butt; stroke-linejoin: miter; stroke-miterlimit: 10; fill: rgb(13,110,253); fill-rule: nonzero; opacity: 1;" transform=" matrix(1 0 0 1 0 0) " stroke-linecap="round"/>
</g>
</svg>